<?xml version="1.0" encoding="UTF-8" standalone="no"?>
<!-- Uploaded to: SVG Repo, www.svgrepo.com, Generator: SVG Repo Mixer Tools -->

<svg
   width="1600"
   height="800"
   viewBox="0 0 48 24"
   fill="none"
   version="1.1"
   id="svg4"
   sodipodi:docname="like.svg"
   inkscape:version="1.2.2 (732a01da63, 2022-12-09)"
   xmlns:inkscape="http://www.inkscape.org/namespaces/inkscape"
   xmlns:sodipodi="http://sodipodi.sourceforge.net/DTD/sodipodi-0.dtd"
   xmlns="http://www.w3.org/2000/svg"
   xmlns:svg="http://www.w3.org/2000/svg">
  <defs
     id="defs8" />
  <sodipodi:namedview
     id="namedview6"
     pagecolor="#ffffff"
     bordercolor="#000000"
     borderopacity="0.25"
     inkscape:showpageshadow="2"
     inkscape:pageopacity="0.0"
     inkscape:pagecheckerboard="0"
     inkscape:deskcolor="#d1d1d1"
     showgrid="false"
     inkscape:zoom="0.518125"
     inkscape:cx="529.79493"
     inkscape:cy="449.69843"
     inkscape:window-width="1920"
     inkscape:window-height="1009"
     inkscape:window-x="-8"
     inkscape:window-y="-8"
     inkscape:window-maximized="1"
     inkscape:current-layer="Interface / Heart_02" />
  <g
     id="Interface / Heart_02"
     style="fill:#ffffff">
    <path
       id="Vector"
       d="m 19.2373,6.23731 c 1.5466,1.54664 1.6059,4.03539 0.1345,5.65379 l -7.3723,8.109 -7.37138,-8.109 C 3.15679,10.2727 3.21605,7.7839 4.76269,6.23726 6.48961,4.51034 9.33372,4.66814 10.8594,6.5752 L 12,8.00045 13.1396,6.57504 c 1.5257,-1.90706 4.3708,-2.06465 6.0977,-0.33773 z"
       stroke="#000000"
       stroke-width="2"
       stroke-linecap="round"
       stroke-linejoin="round"
       style="fill:#5f5f5f;stroke:#ffffff;stroke-opacity:1;fill-opacity:0" />
  </g>
  <path
     style="fill:#ffffff;fill-opacity:1;stroke-width:0.0579012"
     d="M 35.651684,20.878113 C 35.43087,20.797699 27.834026,12.448869 27.444197,11.858194 26.116975,9.8471669 26.465225,7.0580453 28.24756,5.4240842 28.93023,4.7982443 29.673525,4.4044589 30.605302,4.174991 c 0.588477,-0.1449234 1.704434,-0.1297908 2.316043,0.031406 1.038168,0.2736213 2.068937,0.9416919 2.721351,1.7637846 0.191074,0.2407677 0.36378,0.4391376 0.383791,0.4408221 0.02001,0.00168 0.146879,-0.1401588 0.281928,-0.315207 0.731342,-0.9479547 1.736681,-1.6089315 2.883082,-1.8955293 0.690987,-0.1727457 1.75148,-0.169398 2.415011,0.00762 2.124699,0.5668413 3.634658,2.366751 3.822141,4.5560895 0.08003,0.9344841 -0.215922,2.1337971 -0.734469,2.9764071 -0.210791,0.342523 -1.289194,1.569619 -4.134733,4.704839 -2.117261,2.332802 -3.946377,4.299655 -4.064702,4.370783 -0.231878,0.139388 -0.563714,0.163833 -0.843061,0.0621 z m 3.795136,-6.072535 c 1.953374,-2.146769 3.832848,-4.108705 3.594457,-4.066411 -5.150682,0.913797 -8.171826,-1.5859604 -8.13787,-2.2143212 0.03185,-0.589413 4.866283,0.8227307 4.609584,0.2753438 -0.20326,-0.4334391 -1.207227,1.1630484 -1.641103,0.9548073 -1.157006,-0.5553102 1.39234,-3.812477 0.473191,-3.019328 -0.137815,0.1189227 5.997684,3.4788071 5.637658,3.9280101 -0.73032,0.911218 -3.288708,4.690123 -3.523545,4.7791 -0.226679,0.08589 -6.020167,1.061625 -6.295626,0.951408 -0.192578,-0.07705 -1.244726,0.137033 -1.855472,-0.622437 -0.776405,-0.965469 -2.28166,-3.13417 -2.802913,-3.36589 -0.862864,-0.383582 -0.598661,-2.255254 -1.434991,-1.809494 -1.199131,0.63913 0.287239,-2.2008001 0.560253,-0.8819374 0.187847,0.9074414 0.205387,0.9298644 3.943496,5.0413454 1.87889,2.066557 3.492313,0.110114 3.514618,0.110731 0.0223,6.15e-4 1.501677,1.979472 3.358263,-0.06093 z"
     id="path306-8"
     inkscape:label="path306"
     sodipodi:nodetypes="csssssssscssssccssssssssssssssss" />
</svg>
